HIERARCHY
ROOT Hips
{
	OFFSET -0.001795 -0.223333 0.028219
	CHANNELS 6 Xposition Yposition Zposition Zrotation Yrotation Xrotation 
	JOINT LeftUpLeg
	{
		OFFSET 0.069520 -0.091406 -0.006815
		CHANNELS 3 Zrotation Yrotation Xrotation
		JOINT LeftLeg
		{
			OFFSET 0.034277 -0.375199 -0.004496
			CHANNELS 3 Zrotation Yrotation Xrotation
			JOINT LeftFoot
			{
				OFFSET -0.013596 -0.397961 -0.043693
				CHANNELS 3 Zrotation Yrotation Xrotation
				JOINT LeftToe
				{
					OFFSET 0.026358 -0.055791 0.119288
					CHANNELS 3 Zrotation Yrotation Xrotation
					End Site
					{
						OFFSET 0.000000 0.000000 0.000000
					}
				}
			}
		}
	}
	JOINT RightUpLeg
	{
		OFFSET -0.067670 -0.090522 -0.004320
		CHANNELS 3 Zrotation Yrotation Xrotation
		JOINT RightLeg
		{
			OFFSET -0.038290 -0.382569 -0.008850
			CHANNELS 3 Zrotation Yrotation Xrotation
			JOINT RightFoot
			{
				OFFSET 0.015774 -0.398415 -0.042312
				CHANNELS 3 Zrotation Yrotation Xrotation
				JOINT RightToe
				{
					OFFSET -0.025372 -0.048144 0.123348
					CHANNELS 3 Zrotation Yrotation Xrotation
					End Site
					{
						OFFSET 0.000000 0.000000 0.000000
					}
				}
			}
		}
	}
	JOINT Spine
	{
		OFFSET -0.002533 0.108963 -0.026696
		CHANNELS 3 Zrotation Yrotation Xrotation
		JOINT Spine1
		{
			OFFSET 0.005487 0.135180 0.001092
			CHANNELS 3 Zrotation Yrotation Xrotation
			JOINT Spine2
			{
				OFFSET 0.001457 0.052922 0.025425
				CHANNELS 3 Zrotation Yrotation Xrotation
				JOINT Neck
				{
					OFFSET -0.002778 0.213870 -0.042857
					CHANNELS 3 Zrotation Yrotation Xrotation
					JOINT Head
					{
						OFFSET 0.005152 0.064970 0.051349
						CHANNELS 3 Zrotation Yrotation Xrotation
						End Site
						{
							OFFSET 0.000000 0.000000 0.000000
						}
					}
				}
				JOINT LeftShoulder
				{
					OFFSET 0.078845 0.121749 -0.034090
					CHANNELS 3 Zrotation Yrotation Xrotation
					JOINT LeftArm
					{
						OFFSET 0.090977 0.030469 -0.008868
						CHANNELS 3 Zrotation Yrotation Xrotation
						JOINT LeftForeArm
						{
							OFFSET 0.259612 -0.012772 -0.027456
							CHANNELS 3 Zrotation Yrotation Xrotation
							JOINT LeftHand
							{
								OFFSET 0.249234 0.008986 -0.001171
								CHANNELS 3 Zrotation Yrotation Xrotation
								End Site
								{
									OFFSET 0.000000 0.000000 0.000000
								}
							}
						}
					}
				}
				JOINT RightShoulder
				{
					OFFSET -0.081759 0.118833 -0.038615
					CHANNELS 3 Zrotation Yrotation Xrotation
					JOINT RightArm
					{
						OFFSET -0.096012 0.032551 -0.009143
						CHANNELS 3 Zrotation Yrotation Xrotation
						JOINT RightForeArm
						{
							OFFSET -0.253742 -0.013329 -0.021401
							CHANNELS 3 Zrotation Yrotation Xrotation
							JOINT RightHand
							{
								OFFSET -0.255298 0.007772 -0.005559
								CHANNELS 3 Zrotation Yrotation Xrotation
								End Site
								{
									OFFSET 0.000000 0.000000 0.000000
								}
							}
						}
					}
				}
			}
		}
	}
}
MOTION
Frames: 15
Frame Time: 0.050000
0.000000 0.949485 0.000000 -2.066702 -3.062436 7.348617 6.090117 -0.312559 -4.300218 0.261975 0.149593 -4.884978 1.322616 5.708439 9.351426 0.000000 0.000000 0.000000 -1.966641 0.403964 -3.788201 -1.375414 -0.175269 -6.101344 1.834824 -1.994328 12.306888 0.000000 0.000000 0.000000 3.697352 0.386733 -6.661123 -2.109261 0.981658 -3.254403 -1.461398 3.211189 6.583098 6.162930 -3.976466 -6.141863 0.000000 0.000000 0.000000 -8.118201 6.443215 -3.582418 -48.850526 -8.509731 -2.562759 -154.607801 -68.975600 149.119504 0.000000 0.000000 0.000000 7.513613 -11.122725 -5.187487 57.824750 4.963329 -3.168324 142.428644 72.887698 136.739920 0.000000 0.000000 0.000000 
0.000179 0.948457 0.001107 -2.603554 -3.107476 7.923221 6.718149 -0.297772 -3.881697 -0.197515 0.230356 -6.289948 1.537800 6.128746 9.579544 0.000000 0.000000 0.000000 -1.552063 0.432671 -4.165691 -1.652689 -0.179399 -6.405125 1.905165 -1.883370 12.340242 0.000000 0.000000 0.000000 4.460921 0.400953 -6.679819 -2.290603 1.064945 -2.123533 -1.863693 3.496321 4.314163 6.525542 -4.411637 -4.721368 0.000000 0.000000 0.000000 -9.064769 7.792115 -4.377525 -47.128680 -7.254329 -2.759114 -153.493473 -64.459655 144.227734 0.000000 0.000000 0.000000 7.044012 -13.017316 -5.882026 58.081711 4.068837 -3.338080 141.305284 70.042472 132.907299 0.000000 0.000000 0.000000 
0.000467 0.948424 0.001658 -1.985999 -3.572372 7.139045 6.009465 -0.252391 -2.946461 0.347354 0.161298 -5.333428 0.945574 4.907276 9.006294 0.000000 0.000000 0.000000 -2.026775 0.417967 -3.953464 -2.081857 -0.127433 -5.787920 1.280127 -2.928460 11.792607 0.000000 0.000000 0.000000 4.085149 0.334303 -5.815300 -1.338253 0.644255 -4.311406 -3.385626 4.198877 6.024823 7.459900 -5.133482 -4.791414 0.000000 0.000000 0.000000 -8.762791 7.967590 -4.439031 -46.845584 -6.736585 -3.104536 -151.396159 -62.301085 139.239796 0.000000 0.000000 0.000000 9.631864 -11.985346 -5.868779 57.206824 5.490316 -2.804599 142.403356 70.421000 135.452341 0.000000 0.000000 0.000000 
0.000604 0.948795 0.001797 -2.079920 -3.656107 7.456428 6.573309 -0.261652 -3.216813 0.019457 0.185734 -5.405036 0.955951 5.176630 9.970807 0.000000 0.000000 0.000000 -1.811900 0.427384 -4.084644 -1.948749 -0.141879 -5.935508 1.015100 -3.349155 11.538613 0.000000 0.000000 0.000000 4.538820 0.383365 -6.322327 -1.764382 0.825378 -3.597305 -3.295089 3.694426 5.064221 7.571333 -5.371272 -3.942992 0.000000 0.000000 0.000000 -8.213817 9.473824 -4.908560 -46.429148 -6.142404 -3.209316 -150.650695 -59.351816 136.038417 0.000000 0.000000 0.000000 8.270633 -12.288352 -5.797085 57.988279 6.136233 -2.422261 142.560213 67.052093 132.372555 0.000000 0.000000 0.000000 
0.000691 0.948951 0.001556 -1.725626 -3.744876 7.332706 5.921993 -0.249706 -2.854080 0.617389 0.145220 -5.375820 0.921668 5.058026 9.776655 0.000000 0.000000 0.000000 -1.960330 0.439478 -4.212433 -2.415456 -0.134546 -6.175708 0.824634 -3.796475 11.696802 0.000000 0.000000 0.000000 4.319927 0.383710 -6.355331 -1.511554 0.715932 -3.885287 -3.575949 4.217965 5.364170 7.622697 -5.282440 -4.552399 0.000000 0.000000 0.000000 -7.397129 8.811363 -4.496677 -45.369248 -6.424151 -3.071582 -149.955675 -57.501091 132.974953 0.000000 0.000000 0.000000 7.395211 -11.945285 -5.455652 58.244332 7.584170 -1.689915 140.928690 65.378661 129.122731 0.000000 0.000000 0.000000 
0.000656 0.949308 0.000943 -1.780569 -3.557829 7.653923 6.296500 -0.264862 -3.139635 0.192630 0.182115 -5.606594 1.011956 5.296356 10.026406 0.000000 0.000000 0.000000 -1.800649 0.458268 -4.444414 -3.078227 -0.130898 -6.572598 0.855554 -4.046902 12.545916 0.000000 0.000000 0.000000 4.636026 0.398412 -6.500982 -1.576213 0.745024 -4.082887 -3.832463 4.377820 5.347258 7.833956 -5.404693 -4.675468 0.000000 0.000000 0.000000 -6.539863 8.829165 -4.336679 -45.002422 -7.463187 -2.686876 -149.077906 -55.808205 129.758465 0.000000 0.000000 0.000000 6.236485 -11.461372 -5.038755 58.224343 8.851632 -1.006789 140.382198 64.093442 127.438800 0.000000 0.000000 0.000000 
0.000519 0.949233 0.000292 -1.612966 -3.717877 7.590168 6.227135 -0.266050 -3.240239 0.240508 0.167626 -5.311000 1.139651 5.489954 9.989192 0.000000 0.000000 0.000000 -1.809025 0.452423 -4.377852 -3.362899 -0.141391 -6.907436 0.945594 -3.991098 12.775781 0.000000 0.000000 0.000000 4.656717 0.387394 -6.349829 -1.856435 0.863131 -4.160253 -3.841621 4.743018 5.226901 8.011681 -5.429820 -5.139216 0.000000 0.000000 0.000000 -6.063921 8.147224 -3.982142 -44.627246 -8.270489 -2.379431 -149.792945 -55.219002 130.167653 0.000000 0.000000 0.000000 5.707700 -10.935963 -4.725470 58.400268 9.734873 -0.513917 139.124371 64.026606 125.811332 0.000000 0.000000 0.000000 
0.000386 0.949211 -0.000123 -1.499681 -3.335882 7.763168 6.102713 -0.286137 -3.564530 0.249504 0.161628 -5.173066 0.966308 5.229259 9.987478 0.000000 0.000000 0.000000 -1.709100 0.455800 -4.428162 -3.767337 -0.135590 -7.051816 0.749662 -4.372497 12.955850 0.000000 0.000000 0.000000 4.706377 0.395659 -6.491280 -1.952601 0.907879 -4.027775 -4.198072 5.082565 4.962434 8.344009 -5.622187 -5.257686 0.000000 0.000000 0.000000 -5.657056 7.447249 -3.656718 -44.662188 -9.942010 -1.786793 -150.676445 -55.369785 131.294860 0.000000 0.000000 0.000000 5.736073 -10.925452 -4.702197 58.397086 10.289117 -0.150552 135.633392 64.371586 121.770563 0.000000 0.000000 0.000000 
0.000273 0.948983 -0.000003 -1.354814 -3.211939 7.628753 5.879600 -0.287801 -3.565496 0.214932 0.157237 -4.997765 1.070030 5.325995 9.630124 0.000000 0.000000 0.000000 -1.816954 0.421759 -4.021413 -3.976587 -0.160669 -7.524807 0.785640 -4.308826 13.019716 0.000000 0.000000 0.000000 4.703090 0.390037 -6.417614 -1.999107 0.929115 -4.071359 -4.447203 5.281992 4.921262 8.515027 -5.748809 -5.208577 0.000000 0.000000 0.000000 -5.707240 6.710002 -3.401049 -44.960976 -11.584997 -1.213090 -151.415655 -56.005051 132.878564 0.000000 0.000000 0.000000 5.605903 -10.562091 -4.521380 58.432365 10.076680 -0.223939 132.058772 64.894233 117.743210 0.000000 0.000000 0.000000 
0.000197 0.948757 0.000430 -1.202288 -2.706218 7.365658 5.916212 -0.289430 -3.560565 0.079946 0.165091 -4.964615 0.972139 5.271736 9.852273 0.000000 0.000000 0.000000 -1.939073 0.371908 -3.425198 -4.191819 -0.161398 -7.654555 0.512549 -4.636206 12.729775 0.000000 0.000000 0.000000 4.764304 0.402444 -6.539999 -1.952250 0.914691 -3.768298 -4.905552 5.239161 4.678028 8.904850 -6.018253 -5.237683 0.000000 0.000000 0.000000 -5.989094 5.820221 -3.137564 -45.440037 -13.691745 -0.437497 -150.066040 -57.213087 131.405677 0.000000 0.000000 0.000000 5.923251 -10.277982 -4.434831 58.490579 9.985459 -0.229844 126.911805 65.263250 111.688259 0.000000 0.000000 0.000000 
0.000111 0.948247 0.000887 -1.054768 -2.231820 7.249789 5.783723 -0.293978 -3.547396 0.061604 0.164598 -4.920982 0.870969 5.086884 9.636456 0.000000 0.000000 0.000000 -2.043004 0.335333 -2.973475 -4.407653 -0.162354 -7.779042 0.293691 -4.901705 12.519495 0.000000 0.000000 0.000000 4.835201 0.422820 -6.780604 -1.971361 0.927525 -3.430476 -5.067541 4.831130 4.369416 8.940637 -6.040738 -5.234450 0.000000 0.000000 0.000000 -6.357296 4.538369 -2.710346 -46.150372 -15.710653 0.353818 -148.414084 -58.513893 129.953449 0.000000 0.000000 0.000000 6.041637 -9.959206 -4.324250 58.591521 9.446293 -0.488101 123.063180 65.510183 107.018697 0.000000 0.000000 0.000000 
0.000013 0.947734 0.001076 -0.996476 -1.652245 7.052904 5.961543 -0.297147 -3.554484 -0.238935 0.178846 -4.755383 0.677386 4.768986 9.493904 0.000000 0.000000 0.000000 -2.038445 0.300667 -2.576845 -4.634772 -0.136409 -7.566792 0.189107 -4.854077 12.055306 0.000000 0.000000 0.000000 4.887648 0.435591 -6.938067 -1.708157 0.816963 -3.013864 -5.382112 4.137768 4.028216 9.149578 -6.102429 -5.664226 0.000000 0.000000 0.000000 -6.793403 3.562785 -2.392790 -47.086070 -17.961285 1.289912 -144.987262 -59.618167 125.829926 0.000000 0.000000 0.000000 6.409935 -9.206164 -4.076254 58.535871 9.474366 -0.492917 119.351189 66.348675 103.172370 0.000000 0.000000 0.000000 
-0.000203 0.947410 0.000939 -0.970828 -1.302757 6.921113 6.022723 -0.302470 -3.644584 -0.348069 0.177456 -4.489419 0.507899 4.500626 9.457632 0.000000 0.000000 0.000000 -1.963753 0.276460 -2.319357 -4.692186 -0.122784 -7.435912 -0.075910 -5.278119 11.961040 0.000000 0.000000 0.000000 4.879644 0.438122 -6.980752 -1.367194 0.668880 -2.868980 -5.619932 3.818566 3.761626 9.303682 -6.271394 -5.397409 0.000000 0.000000 0.000000 -7.263597 2.134230 -1.909361 -47.976832 -19.933558 2.157103 -140.563752 -60.754571 120.386712 0.000000 0.000000 0.000000 6.947252 -8.904023 -4.024586 58.881868 9.367579 -0.534879 117.180838 66.500677 100.690185 0.000000 0.000000 0.000000 
-0.000586 0.947268 0.000620 -0.922915 -1.114804 6.798445 6.137567 -0.309655 -3.846640 -0.561834 0.182805 -4.174878 0.345622 4.217851 9.392074 0.000000 0.000000 0.000000 -1.936904 0.265359 -2.204658 -4.683997 -0.109747 -7.280841 -0.115655 -5.220367 11.637880 0.000000 0.000000 0.000000 4.857628 0.447567 -7.096019 -1.113201 0.553579 -2.433005 -5.677155 3.116313 3.434071 9.416058 -6.345692 -5.479282 0.000000 0.000000 0.000000 -8.030322 1.376608 -1.683700 -48.438321 -21.438800 2.870142 -136.287141 -61.447545 115.403095 0.000000 0.000000 0.000000 7.398995 -8.078568 -3.772180 58.999206 10.183237 -0.155280 114.194230 67.561901 97.965396 0.000000 0.000000 0.000000 
-0.001166 0.946897 0.000105 -0.853837 -1.264170 6.689636 6.098165 -0.301783 -3.716777 -0.631302 0.189771 -4.232158 0.274389 4.056924 9.321145 0.000000 0.000000 0.000000 -2.011515 0.256557 -2.078803 -4.559190 -0.116022 -7.296326 -0.110089 -5.209899 11.581298 0.000000 0.000000 0.000000 4.714902 0.437331 -6.993711 -0.801824 0.410251 -2.146940 -5.769366 2.904110 3.085382 9.636736 -6.553409 -5.270638 0.000000 0.000000 0.000000 -8.694274 0.239230 -1.297465 -48.426423 -22.014082 3.163152 -133.403526 -61.971297 112.142242 0.000000 0.000000 0.000000 8.214251 -7.599863 -3.693436 58.913653 10.698119 0.089809 113.307035 68.175774 97.412216 0.000000 0.000000 0.000000 
